HIERARCHY
ROOT Hips
{
 OFFSET 0.000000 0.000000 0.000000
 CHANNELS 6 Xposition Yposition Zposition Yrotation Xrotation Zrotation
 JOINT Chest
 {
  OFFSET 0.000000 9.585900 0.002600
  CHANNELS 3 Yrotation Xrotation Zrotation
  JOINT Chest2
  {
   OFFSET 0.000000 9.601200 -0.005300
   CHANNELS 3 Yrotation Xrotation Zrotation
   JOINT Chest3
   {
    OFFSET 0.000000 9.561800 0.000000
    CHANNELS 3 Yrotation Xrotation Zrotation
    JOINT Chest4
    {
     OFFSET 0.000000 9.552100 0.000000
     CHANNELS 3 Yrotation Xrotation Zrotation
     JOINT Neck
     {
      OFFSET 0.000000 14.453000 0.000000
      CHANNELS 3 Yrotation Xrotation Zrotation
      JOINT Head
      {
       OFFSET 0.000000 8.936500 -0.011300
       CHANNELS 3 Yrotation Xrotation Zrotation
       End Site
       {
        OFFSET 0.000000 17.073600 -0.006000
       }
      }
     }
     JOINT RightCollar
     {
      OFFSET -2.921100 9.558500 0.000000
      CHANNELS 3 Yrotation Xrotation Zrotation
      JOINT RightShoulder
      {
       OFFSET -13.519700 0.000000 0.000000
       CHANNELS 3 Yrotation Xrotation Zrotation
       JOINT RightElbow
       {
        OFFSET 0.000000 -29.696600 0.000000
        CHANNELS 3 Yrotation Xrotation Zrotation
        JOINT RightWrist
        {
         OFFSET 0.000000 -24.004700 0.000000
         CHANNELS 3 Yrotation Xrotation Zrotation
         End Site
         {
          OFFSET 0.000000 -17.728500 0.000000
         }
        }
       }
      }
     }
     JOINT LeftCollar
     {
      OFFSET 2.921100 9.558500 0.000000
      CHANNELS 3 Yrotation Xrotation Zrotation
      JOINT LeftShoulder
      {
       OFFSET 13.519700 0.000000 0.000000
       CHANNELS 3 Yrotation Xrotation Zrotation
       JOINT LeftElbow
       {
        OFFSET 0.000000 -29.696600 0.000000
        CHANNELS 3 Yrotation Xrotation Zrotation
        JOINT LeftWrist
        {
         OFFSET 0.000000 -24.004700 0.000000
         CHANNELS 3 Yrotation Xrotation Zrotation
         End Site
         {
          OFFSET 0.000000 -17.728500 0.000000
         }
        }
       }
      }
     }
    }
   }
  }
 }
 JOINT RightHip
 {
  OFFSET -7.771700 -0.012900 -0.001300
  CHANNELS 3 Yrotation Xrotation Zrotation
  JOINT RightKnee
  {
   OFFSET 0.000000 -40.869800 0.001200
   CHANNELS 3 Yrotation Xrotation Zrotation
   JOINT RightAnkle
   {
    OFFSET 0.000000 -39.717900 0.002100
    CHANNELS 3 Yrotation Xrotation Zrotation
    JOINT RightToe
    {
     OFFSET 0.000000 -4.965400 11.033500
     CHANNELS 3 Yrotation Xrotation Zrotation
     End Site
     {
      OFFSET 0.000000 -1.423100 5.872300
     }
    }
   }
  }
 }
 JOINT LeftHip
 {
  OFFSET 7.771700 -0.012900 -0.001300
  CHANNELS 3 Yrotation Xrotation Zrotation
  JOINT LeftKnee
  {
   OFFSET 0.000000 -40.869800 0.001200
   CHANNELS 3 Yrotation Xrotation Zrotation
   JOINT LeftAnkle
   {
    OFFSET 0.000000 -39.717900 0.002100
    CHANNELS 3 Yrotation Xrotation Zrotation
    JOINT LeftToe
    {
     OFFSET 0.000000 -4.965400 11.033500
     CHANNELS 3 Yrotation Xrotation Zrotation
     End Site
     {
      OFFSET 0.000000 -1.423100 5.872300
     }
    }
   }
  }
 }
}
MOTION
Frames: 5
Frame Time: 0.008333
0.000000 85.388000 0.000000 0.000000 -5.767877 0.000000 0.000000 11.653817 0.000000 0.000000 -5.885947 0.000000 0.000000 -0.000000 0.000000 0.000000 -0.000000 0.000000 0.000000 12.528835 0.000000 0.000000 0.711642 0.000000 0.000000 -0.000000 0.000000 0.000000 0.000000 -90.000000 0.000000 -2.309062 0.000000 0.000000 2.309062 0.000000 0.000000 -0.000000 0.000000 0.000000 -0.000000 90.000000 0.000000 -2.309062 0.000000 0.000000 2.309062 0.000000 0.000000 8.520406 0.000000 0.000000 1.905762 0.000000 -0.000000 -4.658285 0.000000 0.000000 -0.000000 0.000000 0.000000 8.520406 0.000000 0.000000 1.905762 0.000000 -0.000000 -4.658285 0.000000 0.000000 -0.000000 0.000000
-16.153493 58.071129 29.878485 155.240015 -45.606279 -0.054117 10.294282 25.986347 5.342107 1.586643 4.722790 0.416218 2.515941 7.468844 0.630797 7.751577 21.333402 2.917234 -1.782725 15.820394 -0.682631 -3.073383 -6.412579 -0.628988 5.208783 -0.271278 -0.855128 38.068604 -48.204441 -18.487581 34.874723 -11.098000 -5.415005 10.249936 3.286138 -48.246612 -10.543144 -0.286776 -3.188173 -16.247524 -31.798042 12.643222 -63.736688 -41.299430 37.297644 -32.700538 5.478937 10.046229 16.611505 -29.925437 14.043978 -7.853072 68.276749 -2.581469 0.489807 7.702424 -0.261406 -0.043701 0.008212 -0.030645 -0.947683 -28.001575 10.944020 26.038082 69.232547 22.505837 -24.553658 3.623288 -1.926022 -0.456078 -0.846837 -0.188886
-16.164512 58.069566 29.882735 155.294102 -45.631762 -0.077088 10.255122 26.018006 5.266359 1.588889 4.728220 0.449697 2.516626 7.476231 0.626346 7.736552 21.375806 2.860697 -1.768171 15.901693 -0.668854 -3.050497 -6.261432 -0.610075 5.228806 -0.255825 -0.889797 38.108835 -48.174109 -18.489594 34.798427 -11.195733 -5.532769 10.251958 3.289758 -48.255326 -10.514277 -0.301102 -3.189603 -16.221009 -31.850795 12.624664 -63.787553 -41.323481 37.341455 -32.701640 5.494283 9.991750 16.626901 -29.919946 14.001822 -7.837099 68.286151 -2.530375 0.474272 7.747116 -0.252680 -0.043353 -0.022220 -0.028845 -0.941082 -27.981138 10.915936 25.997018 69.224017 22.489713 -24.596070 3.601018 -1.945295 -0.400958 -0.820198 -0.172872
-16.170129 58.068199 29.890924 155.316324 -45.664358 -0.121940 10.265338 26.042965 5.239436 1.590259 4.751286 0.392177 2.525546 7.465557 0.715079 7.739866 21.383518 2.850239 -1.780195 16.009766 -0.702928 -3.035668 -6.105104 -0.581181 5.227129 -0.204355 -0.960118 38.106118 -48.239006 -18.454955 34.773363 -11.201739 -5.646517 10.251429 3.258866 -48.223729 -10.500508 -0.286053 -3.238670 -16.201995 -31.904155 12.611336 -63.840278 -41.354345 37.388098 -32.725290 5.519262 9.924981 16.641939 -29.918444 14.020645 -7.828166 68.274998 -2.495910 0.459216 7.811128 -0.236367 -0.045364 -0.027116 -0.024709 -0.947405 -27.950844 10.940739 25.965796 69.216121 22.473895 -24.587276 3.595257 -1.945557 -0.380244 -0.811426 -0.172089
-16.179591 58.065274 29.900461 155.329428 -45.687555 -0.146956 10.281487 26.055896 5.194314 1.597770 4.762507 0.370461 2.525513 7.481541 0.735772 7.750851 21.406954 2.793869 -1.761226 16.085426 -0.654564 -3.032349 -5.939683 -0.539416 5.223367 -0.193086 -0.947262 38.115480 -48.249772 -18.441772 34.724686 -11.260258 -5.767967 10.252582 3.224516 -48.186162 -10.482553 -0.283012 -3.202059 -16.191965 -31.955337 12.606507 -63.892829 -41.394201 37.434485 -32.753534 5.553014 9.856627 16.644432 -29.919731 14.024061 -7.822871 68.268541 -2.477723 0.460292 7.872784 -0.215207 -0.042823 0.000769 -0.028101 -0.957001 -27.928692 10.955382 25.959007 69.204636 22.466663 -24.583821 3.597738 -1.942984 -0.376779 -0.802990 -0.172672
